# xmcd CD database file
# Copyright (C) 1995 Ti Kan
#
# Track frame offsets:
#	182
#	14152
#	39465
#	62600
#	86167
#	102372
#	117355
#	138255
#	158772
#	180755
#	201967
#	223897
#	239420
#	265012
#	281835
#	307377
#	323772
#
# Disc length: 4555 seconds
#
# Revision: 1
# Processed by: cddbd v1.4b41PL1 Copyright (c) Steve Scherf et al.
# Submitted via: NotifyCDPlayer(CDDB) 1.50beta3
#
DISCID=fd11c911
DTITLE=LATIMORE - Let's Straighten It Out
DYEAR=1900
DGENRE=
TTITLE0=Jolie
TTITLE1=Stormy Monday
TTITLE2=If You Were My Woman
TTITLE3=Let's Straighten It Out
TTITLE4=Snap Your Fingers
TTITLE5=Keep the Home Fire Burning
TTITLE6=There's A Red Neck in the Soul Band
TTITLE7=Qualified Man
TTITLE8=Somethin' Bout Cha
TTITLE9=Sweet Vibrations
TTITLE10=I Get Lifted
TTITLE11=Let Me Live the Life I Love
TTITLE12=Dig a Little Deeper
TTITLE13=Long Distance Love
TTITLE14=Too Hot to Handle
TTITLE15=Goodbye Heartache
TTITLE16=Discoed to Death
EXTD=
EXTT0=
EXTT1=
EXTT2=
EXTT3=
EXTT4=
EXTT5=
EXTT6=
EXTT7=
EXTT8=
EXTT9=
EXTT10=
EXTT11=
EXTT12=
EXTT13=
EXTT14=
EXTT15=
EXTT16=
PLAYORDER=
